<svg xmlns="http://www.w3.org/2000/svg" viewBox="0 0 72 72">
    <defs>
        <style>
            .d {
                fill: none;
            }
        </style>
        <linearGradient id="a" x1="1.7" x2="70.1" y1="4" y2="67.8" gradientUnits="userSpaceOnUse">
            <stop offset="0" stop-color="#232a2d" />
            <stop offset=".3" stop-color="#0e141b" />
            <stop offset=".5" stop-color="#484c50" />
            <stop offset=".8" stop-color="#0e141b" />
            <stop offset="1" stop-color="#232a2d" />
        </linearGradient>
    </defs>
    <path d="M53.3 26 36 19.1 18.7 26 36 32.9 53.3 26z" class="d" />
    <path d="M36 35a1 1 0 0 1-.4 0l-7.1-3-9.8 4L36 43l17.3-7-9.8-4-7.1 3a1 1 0 0 1-.4 0Z" class="d" />
    <path d="m36 53 17.3-7-9.8-4-7.1 3H36a1 1 0 0 1-.4 0l-7.1-3-9.8 4L36 53Z" class="d" />
    <path fill="#ee8100"
        d="m56.4 25-20-8a1 1 0 0 0-.8 0l-20 8a1 1 0 0 0 0 2l10.2 4 2.7 1 7.1 3h.8l7.1-3 2.7-1 10.2-4a1 1 0 0 0 0-2ZM36 33l-17.3-7L36 19l17.3 7L36 33Z" />
    <path fill="#ee8100"
        d="M53.3 46 36 53l-17.3-7 9.8-4-2.7-1-10.2 4a1 1 0 0 0 0 2l20 8h.8l20-8a1 1 0 0 0 0-2l-10.2-4-2.7 1 9.8 4Z"
        opacity=".4" />
    <path fill="#ee8100"
        d="m56.4 35-10.2-4-2.7 1 9.8 4L36 43l-17.3-7 9.8-4-2.7-1-10.2 4a1 1 0 0 0 0 2l10.2 4 2.7 1 7.1 3h.8l7.1-3 2.7-1 10.2-4a1 1 0 0 0 0-2Z"
        opacity=".7" />
    <path fill="url(#a)"
        d="M58 2.5c6.4 0 11.5 5.1 11.5 11.5v44c0 6.4-5.1 11.5-11.5 11.5H14C7.6 69.5 2.5 64.4 2.5 58V14C2.5 7.6 7.6 2.5 14 2.5h44m0-2H14C6.5.5.5 6.5.5 14v44c0 7.5 6 13.5 13.5 13.5h44c7.5 0 13.5-6 13.5-13.5V14C71.5 6.5 65.5.5 58 .5Z" />
</svg>