<svg xmlns="http://www.w3.org/2000/svg" viewBox="0 0 72 72">
    <defs>
        <linearGradient id="a" x1="1.7" x2="70.1" y1="4" y2="67.8" gradientUnits="userSpaceOnUse">
            <stop offset="0" stop-color="#232a2d" />
            <stop offset=".3" stop-color="#0e141b" />
            <stop offset=".5" stop-color="#484c50" />
            <stop offset=".8" stop-color="#0e141b" />
            <stop offset="1" stop-color="#232a2d" />
        </linearGradient>
    </defs>
    <path fill="#9342c6"
        d="m30.7 58-3.1-4.8c-1.4.6-2.6 1.2-4 1.6-.5.3-1.2.2-1.8.3v-1.7L26 40l.2-.6c-.6 0-1-.2-1.6-.3-1.4-.3-2-1.2-2-2.6.1-.8.4-1.6.4-2.4 0-.6-.1-1.2-.5-1.7l-1.8-1.8c-1-1-1-2.2 0-3.3l1.6-1.6c.7-.5 1-1.2.7-2a11 11 0 0 1-.3-1.8c-.2-2 .4-2.8 2.3-3.2l1-.1c1.5 0 2.5-.6 3-2a4 4 0 0 1 2.1-2.7h1.2c1.2.6 2.4 1.6 3.6 1.6 1.3 0 2.5-1 3.8-1.6h1.1c1.2.6 1.8 1.6 2.2 2.8.5 1.3 1.4 1.8 2.7 1.9h.7c2.3.3 3.3 1.3 2.7 3.5-.5 2 0 3.4 1.7 4.8 1.6 1.2 1.6 2.8 0 4.1-1.6 1.3-2.2 2.6-1.7 4.7.6 2.4-.2 3.2-3.4 3.7l1.6 5 2.9 9.1V55l-1.6-.1-4.2-1.8-3.1 4.8h-.8l-.7-1.2-1.2-3.9-2.6-8.2-.5 1.2-3.4 10.9-.6 1.2h-.8Zm17-36.8c-.3-.2-.6-.6-1-.7-.5-.2-1-.2-1.6-.2a3.8 3.8 0 0 1-3.4-2.3c-1.3-2.8-1-2.7-3.7-1.2-1.4.8-2.7.8-4.1 0l-1-.6c-1.3-.7-1.5-.6-2.2.8l-.1.3c-.7 2-2 3-4.1 3-2.3.2-2.4.4-1.9 2.6.5 1.8.2 3.2-1.3 4.4-2 1.8-2 1.7 0 3.5 1.4 1.2 1.8 2.6 1.4 4.3-.6 2.3-.6 2.4 1.9 2.6 2 .2 3.1 1 3.9 2.8.9 2.2 1 2.2 3 1 1.7-1 3.2-1 4.8 0 2.2 1.2 2.2 1.2 3.2-1a4 4 0 0 1 3.7-2.7c2.5-.3 2.7-.1 2-2.9-.4-1.6 0-3 1.4-4l1-1c.7-.6.7-1.2 0-1.8l-1.4-1.3a3 3 0 0 1-1-3l.4-2.6ZM44 40h-.2l-1.2 2.3c-1 1.8-2.2 2.2-4 1.3l-1.3-.7L41 55.2l2-3.1c.4-.8.9-.9 1.6-.5L48 53l-4-13ZM31 55l3.7-12-.7.4c-2.5 1.4-3.7 1-5-1.5l-1-2.2L23.8 53l3.3-1.4c.8-.4 1.4-.3 1.8.5l2 3Z"
        opacity=".7" />
    <path fill="#9342c6"
        d="M27 29c0-5 4-9 9-8.9 5 0 9 4 9 9a9 9 0 0 1-9.1 8.9c-5 0-9-4-9-9Zm9-7.3a7.4 7.4 0 0 0-7.5 7.4c0 4 3.3 7.3 7.4 7.3 4.2 0 7.6-3.3 7.6-7.4 0-4-3.4-7.3-7.5-7.3Z" />
    <path fill="url(#a)"
        d="M58 2.5c6.4 0 11.5 5.1 11.5 11.5v44c0 6.4-5.1 11.5-11.5 11.5H14C7.6 69.5 2.5 64.4 2.5 58V14C2.5 7.6 7.6 2.5 14 2.5h44m0-2H14C6.5.5.5 6.5.5 14v44c0 7.5 6 13.5 13.5 13.5h44c7.5 0 13.5-6 13.5-13.5V14C71.5 6.5 65.5.5 58 .5Z" />
</svg>