<?xml version="1.0" encoding="UTF-8"?><svg id="a" xmlns="http://www.w3.org/2000/svg" xmlns:xlink="http://www.w3.org/1999/xlink" viewBox="0 0 72 72"><defs><style>.c{fill:url(#b);}.d{fill:#9342c6;}.e{opacity:.7;}</style><linearGradient id="b" x1="1.73" y1="4.04" x2="70.08" y2="67.78" gradientTransform="matrix(1, 0, 0, 1, 0, 0)" gradientUnits="userSpaceOnUse"><stop offset="0" stop-color="#232a2d"/><stop offset=".25" stop-color="#0e141b"/><stop offset=".5" stop-color="#484c50"/><stop offset=".75" stop-color="#0e141b"/><stop offset="1" stop-color="#232a2d"/></linearGradient></defs><g class="e"><path class="d" d="M22.3,28.91c.53,.16,1.09-.14,1.25-.67,1.64-5.44,6.76-9.24,12.45-9.24s10.93,3.88,12.51,9.44c.12,.44,.53,.73,.96,.73,.09,0,.18-.01,.27-.04,.53-.15,.84-.7,.69-1.24-1.82-6.41-7.76-10.89-14.43-10.89s-12.47,4.38-14.36,10.66c-.16,.53,.14,1.09,.67,1.25Z"/><path class="d" d="M60.21,54.79l-12.92-12.92c.98-1.12,1.8-2.38,2.43-3.78,.22-.5,0-1.1-.51-1.32-.5-.23-1.1,0-1.32,.51-2.09,4.69-6.75,7.72-11.88,7.72-5.5,0-10.43-3.48-12.26-8.67-.18-.52-.76-.79-1.28-.61-.52,.18-.79,.76-.61,1.28,2.11,5.98,7.8,10,14.15,10,3.7,0,7.19-1.37,9.88-3.71l12.92,12.92c.2,.2,.45,.29,.71,.29s.51-.1,.71-.29c.39-.39,.39-1.02,0-1.41Z"/></g><path class="d" d="M56,26c-2.21,0-4,1.79-4,4,0,.34,.06,.67,.14,.99l-9.73,4.95c-.7-1.15-1.96-1.94-3.41-1.94-.68,0-1.32,.19-1.88,.49l-2.28-3.67c.72-.72,1.17-1.72,1.17-2.82,0-2.21-1.79-4-4-4s-4,1.79-4,4c0,.29,.04,.58,.1,.85l-8.97,3.68c-.73-.93-1.86-1.54-3.13-1.54-2.21,0-4,1.79-4,4s1.79,4,4,4,4-1.79,4-4c0-.22-.03-.42-.06-.63l9.08-3.73c.73,.83,1.79,1.36,2.98,1.36,.38,0,.75-.07,1.1-.17l2.46,3.96s.04,.05,.07,.08c-.39,.62-.63,1.35-.63,2.14,0,2.21,1.79,4,4,4s4-1.79,4-4c0-.04-.01-.08-.01-.12l10.11-5.14c.73,.77,1.76,1.26,2.9,1.26,2.21,0,4-1.79,4-4s-1.79-4-4-4Zm-40,11c-1.1,0-2-.9-2-2s.9-2,2-2,2,.9,2,2-.9,2-2,2Zm14-9c0-1.1,.9-2,2-2s2,.9,2,2-.9,2-2,2-2-.9-2-2Zm9,12c-1.1,0-2-.9-2-2s.9-2,2-2,2,.9,2,2-.9,2-2,2Zm17-8c-1.1,0-2-.9-2-2s.9-2,2-2,2,.9,2,2-.9,2-2,2Z"/><path class="c" d="M58.03,2.47c6.34,0,11.5,5.16,11.5,11.5V58.03c0,6.34-5.16,11.5-11.5,11.5H13.97c-6.34,0-11.5-5.16-11.5-11.5V13.97C2.47,7.63,7.63,2.47,13.97,2.47H58.03m0-1.97H13.97C6.53,.5,.5,6.53,.5,13.97V58.03c0,7.44,6.03,13.47,13.47,13.47H58.03c7.44,0,13.47-6.03,13.47-13.47V13.97c0-7.44-6.03-13.47-13.47-13.47h0Z"/></svg>
