<?xml version="1.0" encoding="UTF-8"?><svg id="a" xmlns="http://www.w3.org/2000/svg" xmlns:xlink="http://www.w3.org/1999/xlink" viewBox="0 0 72 72"><defs><style>.c{fill:url(#b);}.d,.e{fill:#ee8100;}.e{opacity:.7;}</style><linearGradient id="b" x1="1.73" y1="4.04" x2="70.08" y2="67.78" gradientTransform="matrix(1, 0, 0, 1, 0, 0)" gradientUnits="userSpaceOnUse"><stop offset="0" stop-color="#232a2d"/><stop offset=".25" stop-color="#0e141b"/><stop offset=".5" stop-color="#484c50"/><stop offset=".75" stop-color="#0e141b"/><stop offset="1" stop-color="#232a2d"/></linearGradient></defs><path class="e" d="M54.71,44.7c-.52-3.45-1.86-6.83-3.97-10.03-2.08-3.15-4.72-5.94-7.85-8.3,.38-.65,.75-1.31,1.12-1.97l1.2-2.13c.54-.95,1.08-1.9,1.61-2.86,.71-1.27,.14-2.11-.26-2.49-1.72-1.67-3.67-2.26-5.81-1.75-.92,.22-1.8,.54-2.66,.86l-.55,.2c-.61,.22-1.09,.24-1.61,.05-.96-.35-1.92-.59-2.9-.83-1.3-.31-2.59-.33-3.84-.06-1.42,.31-2.71,1.03-3.95,2.18-1.05,.97-1.15,1.88-.34,3.05l.63,.91c1.14,1.65,2.28,3.3,3.44,4.95-3.39,2.59-6.17,5.65-8.27,9.09-2.39,3.92-3.64,8.12-3.69,12.49-.03,1.95,.53,3.69,1.64,5.18,1.86,2.49,4.46,3.75,7.71,3.76h19.42c4.73-.02,8.58-3.29,9.14-7.76,.2-1.59,0-3.18-.21-4.54ZM27.17,20.4l-.63-.91c-.07-.11-.12-.18-.14-.23,.04-.04,.1-.11,.21-.21,.99-.92,1.95-1.46,3.02-1.69,.95-.21,1.94-.19,2.94,.05,.93,.23,1.83,.45,2.69,.76,.96,.35,1.91,.33,2.96-.05l.56-.21c.83-.31,1.62-.6,2.43-.79,1.43-.34,2.7,.05,3.91,1.21-.01,.03-.03,.07-.06,.12-.53,.95-1.07,1.9-1.61,2.85l-1.2,2.13c-.45,.8-.9,1.6-1.36,2.39l-10.24-.39c-1.17-1.67-2.33-3.35-3.49-5.03Zm25.76,28.6c-.44,3.52-3.39,5.99-7.23,6.01H26.35c-2.62,0-4.62-.97-6.11-2.95-.84-1.13-1.26-2.46-1.24-3.96,.05-4,1.2-7.86,3.4-11.47,2.06-3.38,4.83-6.37,8.23-8.88,.12-.09,.2-.19,.29-.3l10.56,.4c3.03,2.25,5.59,4.91,7.58,7.94,1.95,2.96,3.19,6.06,3.67,9.23,.2,1.29,.37,2.65,.2,3.99Z"/><path class="d" d="M32.74,47.49h-3.46l4.25-5.98-2.17-5.62h3.1l1.47,3.96,2.57-3.96h3.49l-4.31,5.85,2.29,5.75h-3.12l-1.57-4.06-2.55,4.06Z"/><path class="c" d="M58.03,2.47c6.34,0,11.5,5.16,11.5,11.5V58.03c0,6.34-5.16,11.5-11.5,11.5H13.97c-6.34,0-11.5-5.16-11.5-11.5V13.97C2.47,7.63,7.63,2.47,13.97,2.47H58.03m0-1.97H13.97C6.53,.5,.5,6.53,.5,13.97V58.03c0,7.44,6.03,13.47,13.47,13.47H58.03c7.44,0,13.47-6.03,13.47-13.47V13.97c0-7.44-6.03-13.47-13.47-13.47h0Z"/></svg>
