<?xml version="1.0" encoding="UTF-8"?><svg id="a" xmlns="http://www.w3.org/2000/svg" xmlns:xlink="http://www.w3.org/1999/xlink" viewBox="0 0 72 72"><defs><style>.c{fill:url(#b);}.d{fill:#ea2b57;}.e{opacity:.5;}</style><linearGradient id="b" x1="1.73" y1="4.04" x2="70.08" y2="67.78" gradientTransform="matrix(1, 0, 0, 1, 0, 0)" gradientUnits="userSpaceOnUse"><stop offset="0" stop-color="#232a2d"/><stop offset=".25" stop-color="#0e141b"/><stop offset=".5" stop-color="#484c50"/><stop offset=".75" stop-color="#0e141b"/><stop offset="1" stop-color="#232a2d"/></linearGradient></defs><g class="e"><path class="d" d="M37.45,57c-3.83,0-7.56-.98-10.85-2.85-1.15,.7-3.11,1.79-5.92,1.81l-6.67,.05c-.44,0-.78-.24-.93-.62-.16-.38-.07-.81,.23-1.1l4.71-4.6c1.21-1.18,1.5-1.76,1.57-1.95-2.42-3.22-3.68-7.27-3.68-11.74,0-11.58,9.67-21,21.55-21s21.55,9.42,21.55,21-9.67,21-21.55,21Zm-10.86-5.02c.18,0,.36,.05,.52,.14,3.1,1.88,6.67,2.87,10.34,2.87,10.78,0,19.55-8.52,19.55-19s-8.77-19-19.55-19-19.55,8.52-19.55,19c0,4.08,1.15,7.74,3.33,10.6,1.06,1.39-.33,3.07-1.82,4.53l-2.93,2.86,4.19-.03c2.43-.02,4.01-.98,5.06-1.62l.37-.22c.15-.09,.33-.13,.5-.13Z"/></g><g><path class="d" d="M37,32c-2.21,0-4,1.79-4,4s1.79,4,4,4,4-1.79,4-4-1.79-4-4-4Zm0,6c-1.1,0-2-.9-2-2s.9-2,2-2,2,.9,2,2-.9,2-2,2Z"/><path class="d" d="M27,32c-2.21,0-4,1.79-4,4s1.79,4,4,4,4-1.79,4-4-1.79-4-4-4Zm0,6c-1.1,0-2-.9-2-2s.9-2,2-2,2,.9,2,2-.9,2-2,2Z"/><path class="d" d="M47,32c-2.21,0-4,1.79-4,4s1.79,4,4,4,4-1.79,4-4-1.79-4-4-4Zm0,6c-1.1,0-2-.9-2-2s.9-2,2-2,2,.9,2,2-.9,2-2,2Z"/></g><path class="c" d="M58.03,2.47c6.34,0,11.5,5.16,11.5,11.5V58.03c0,6.34-5.16,11.5-11.5,11.5H13.97c-6.34,0-11.5-5.16-11.5-11.5V13.97C2.47,7.63,7.63,2.47,13.97,2.47H58.03m0-1.97H13.97C6.53,.5,.5,6.53,.5,13.97V58.03c0,7.44,6.03,13.47,13.47,13.47H58.03c7.44,0,13.47-6.03,13.47-13.47V13.97c0-7.44-6.03-13.47-13.47-13.47h0Z"/></svg>
