<svg xmlns="http://www.w3.org/2000/svg" viewBox="0 0 72 72">
    <defs>
        <style>
            .d,
            .e {
                fill: #ea2b57;
            }

            .e {
                opacity: .5;
            }
        </style>
        <linearGradient id="a" x1="1.7" x2="70.1" y1="4" y2="67.8" gradientUnits="userSpaceOnUse">
            <stop offset="0" stop-color="#232a2d" />
            <stop offset=".3" stop-color="#0e141b" />
            <stop offset=".5" stop-color="#484c50" />
            <stop offset=".8" stop-color="#0e141b" />
            <stop offset="1" stop-color="#232a2d" />
        </linearGradient>
    </defs>
    <path
        d="M43 28a15 15 0 1 0-27.4 8.4c.5.6-.6 1.7-1.6 2.7-.8.8-1.3 1.3-1.1 2 .1.5.4.8.9.9 3 .7 5-.5 6-1.1l.3-.2A15 15 0 0 0 43 28ZM28 41c-2.6 0-5-.7-7.2-2.1-.2-.2-.4-.2-.7-.2-.5 0-1 .2-1.3.5-.7.4-1.7 1-3 1 1.1-1.2 2.8-3 1.4-5A13 13 0 1 1 28 41Z"
        class="e" />
    <path
        d="M57.9 55.1c-1-1-2-2-1.6-2.7A15 15 0 0 0 45.2 29c-.6 0-1 .4-1.1 1s.3 1 .9 1a13 13 0 0 1 9.7 20.2c-1.4 1.9.2 3.8 1.4 5-1.4 0-2.3-.6-3-1-.6-.4-1.3-.8-2-.4a13 13 0 0 1-20.2-9.7 1 1 0 1 0-2 .2 15 15 0 0 0 22.9 11.4l.2.2c1 .6 3 1.8 6.1 1 .4 0 .8-.3.9-.7.2-.8-.4-1.3-1.1-2Z"
        class="e" />
    <path
        d="M32.7 21h-1.5l-.7.2c-1 .2-1.8.7-2.5 1.5a5.4 5.4 0 0 0-3-1.6h-.3l-.2 1v-1l-.1-.1h-.9l-.5.1c-2 .4-3.6 2-3.9 4a7 7 0 0 0 2 6.1c.6.8 1.4 1.4 2.2 2l.5.5 2.3 2 1.3 1 .6.3a1 1 0 0 0 .7-.3l4.4-3.7c.7-.6 1.4-1.2 2-2a7 7 0 0 0 2-4.5c0-.7 0-1.5-.4-2.3a5 5 0 0 0-4-3.1Zm1 8.7-1.9 1.8-3.8 3.2-.6-.5-2.4-2-.4-.4-2.1-2a5 5 0 0 1-1.4-4.4c.1-1 1-2 2.3-2.3H25c.8.3 1.5.8 2 1.6l.2.1c.2.3.5.5.8.5.3 0 .6-.2.8-.4l.1-.2.2-.2c.5-.7 1.2-1.2 2-1.4h1.3c1.2.2 2 .8 2.4 1.9.2.4.2.9.2 1.5a5 5 0 0 1-1.3 3.2Zm7.9 11.8h-4.1c-.8 0-1.5.5-1.7 1.1v.1l1 .4-1-.3v6.8c.3.7.9 1.2 1.7 1.2H41l.6-.1h.2l.7.2.7.2 1.2.4c1 .3 2 .5 2.8.5h1.2c.6 0 1.2-.2 1.7-.4a3 3 0 0 0 1.4-2v-.7a3 3 0 0 0 .6-2.1 3 3 0 0 0 .3-2c.3-.5.4-1 .5-1.4v-.6l-.1-.4a2.9 2.9 0 0 0-2.8-2.1h-1c.2-.5.2-1 .2-1.5l-.1-1.3a2.6 2.6 0 0 0-2.4-2H46c-.8.1-1.1.7-1.3.9-.3.5-.4 1-.5 1.5l-.2.9-.2.2a51.7 51.7 0 0 0-2.1 2.5Zm-3.9 2h2.6v5.3h-2.6v-5.3Zm6.5-2a39.7 39.7 0 0 1 1.5-1.8l.4-1.5.2-.7h.4c.2.1.4.2.5.6a3 3 0 0 1-.1 1.6l-.2.5-.2.3-.1.3-.6 1.5h4c.5 0 .8.3.9.6v.3c0 .2 0 .4-.2.6-.3.3-.4.7-.2 1.2 0 .3 0 .6-.2 1l-.2.4v.4c.2.4 0 .8-.2 1-.2.3-.3.5-.3.9v.4c0 .4-.2.6-.5.7l-.7.2h-1.1a8 8 0 0 1-2.4-.4l-1.2-.3-.7-.3h-.3v-5.8l.3-.2 1.2-1.5Z"
        class="d" />
    <path fill="url(#a)"
        d="M58 2.5c6.4 0 11.5 5.1 11.5 11.5v44c0 6.4-5.1 11.5-11.5 11.5H14C7.6 69.5 2.5 64.4 2.5 58V14C2.5 7.6 7.6 2.5 14 2.5h44m0-2H14C6.5.5.5 6.5.5 14v44c0 7.5 6 13.5 13.5 13.5h44c7.5 0 13.5-6 13.5-13.5V14C71.5 6.5 65.5.5 58 .5Z" />
</svg>