<svg xmlns="http://www.w3.org/2000/svg" fill="none" viewBox="0 0 503 515">
    <g clip-path="url(#a)">
        <path fill="#F5A03E" d="M426.5 83.1a41.3 41.3 0 1 1 0-82.6 41.3 41.3 0 0 1 0 82.6Z" opacity=".2" />
        <path fill="#F5A03E" fill-opacity=".2" stroke="#F5A03E" stroke-miterlimit="10"
            d="M182 .5H2.1C1.2.5.5 1.3.5 2.2v91.4c0 1 .8 1.7 1.7 1.7H182c1 0 1.7-.8 1.7-1.7V2.2c0-.9-.8-1.7-1.7-1.7Z" />
        <path fill="#F5A03E" d="M108 457H5.4a5 5 0 0 0-5 5v28a5 5 0 0 0 5 5h102.4a5 5 0 0 0 5-5v-28a5 5 0 0 0-5-5Z"
            opacity=".2" />
        <path fill="#F5A03E"
            d="M18.2 482.8h-8.1v-1l3.9-4.3c1.5-1.6 2-2.5 2-3.6a2 2 0 0 0-2-2.1 2.2 2.2 0 0 0-2.3 1.3l-.1 1H9.8a4 4 0 0 1 4.2-4c2.3 0 4 1.5 4 3.5 0 1.5-.5 2.5-2.6 4.7l-2.5 2.9h5.3v1.6Zm1.6-3.6h1.8a2.4 2.4 0 0 0 2.6 2.1 2.4 2.4 0 0 0 2.6-2.5 2.4 2.4 0 0 0-2.6-2.4 2.7 2.7 0 0 0-2.5 1.4l-1.5-.5 1-7H28v1.6h-5.4l-.5 3.7c.6-.6 1.5-.9 2.3-.9a4 4 0 0 1 4.3 4.1 4.2 4.2 0 0 1-4.5 4.2 4.1 4.1 0 0 1-4.4-3.8Zm9.9 6v-1a2 2 0 0 0 2.1-1.6 1.1 1.1 0 0 1-.8 0 1.2 1.2 0 0 1-.8-1.2 1.3 1.3 0 0 1 1.4-1.4c1 0 1.5.7 1.5 2a3.3 3.3 0 0 1-3.4 3.2Zm9.6-15.2c3 0 4.7 2.4 4.7 6.6 0 4.1-1.7 6.4-4.7 6.4s-4.6-2.3-4.6-6.5c0-4.1 1.6-6.4 4.6-6.4Zm0 11.3c1.8 0 2.7-1.6 2.7-4.7 0-3.2-1-4.9-2.7-4.9-1.7 0-2.7 1.7-2.7 4.9 0 3.1 1 4.7 2.7 4.7ZM50.4 470c3 0 4.7 2.4 4.7 6.6 0 4.1-1.7 6.4-4.7 6.4s-4.6-2.3-4.6-6.5c0-4.1 1.6-6.4 4.6-6.4Zm0 11.3c1.8 0 2.7-1.6 2.7-4.7 0-3.2-.9-4.9-2.7-4.9-1.7 0-2.7 1.7-2.7 4.9 0 3.1 1 4.7 2.7 4.7ZM61.5 470c3 0 4.7 2.4 4.7 6.6 0 4.1-1.6 6.4-4.7 6.4-3 0-4.6-2.3-4.6-6.5 0-4.1 1.7-6.4 4.6-6.4Zm0 11.3c1.8 0 2.8-1.6 2.8-4.7 0-3.2-1-4.9-2.8-4.9-1.7 0-2.7 1.7-2.7 4.9 0 3.1 1 4.7 2.7 4.7Zm5.7 3.9v-1a2 2 0 0 0 2.1-1.6 1.1 1.1 0 0 1-.9 0 1.2 1.2 0 0 1-.7-1.2A1.3 1.3 0 0 1 69 480c1 0 1.6.7 1.6 2a3.2 3.2 0 0 1-3.4 3.2Zm9.6-15.2c3 0 4.6 2.4 4.6 6.6 0 4.1-1.6 6.4-4.6 6.4-3 0-4.7-2.3-4.7-6.5 0-4.1 1.7-6.4 4.7-6.4Zm0 11.3c1.7 0 2.7-1.6 2.7-4.7 0-3.2-1-4.9-2.7-4.9-1.8 0-2.7 1.7-2.7 4.9 0 3.1.9 4.7 2.7 4.7ZM87.9 470c3 0 4.6 2.4 4.6 6.6 0 4.1-1.6 6.4-4.6 6.4-3 0-4.7-2.3-4.7-6.5 0-4.1 1.7-6.4 4.7-6.4Zm0 11.3c1.8 0 2.7-1.6 2.7-4.7 0-3.2-1-4.9-2.7-4.9-1.7 0-2.7 1.7-2.7 4.9 0 3.1 1 4.7 2.7 4.7ZM99 470c3 0 4.6 2.4 4.6 6.6 0 4.1-1.6 6.4-4.6 6.4-3 0-4.6-2.3-4.6-6.5 0-4.1 1.6-6.4 4.6-6.4Zm0 11.3c1.8 0 2.7-1.6 2.7-4.7 0-3.2-1-4.9-2.7-4.9-1.7 0-2.7 1.7-2.7 4.9 0 3.1 1 4.7 2.7 4.7Z" />
        <path stroke="#F5A03E" stroke-miterlimit="10"
            d="M108.8 457H4.6a4 4 0 0 0-4.1 4v29.9a4 4 0 0 0 4 4h104.3a4 4 0 0 0 4.1-4v-30a4 4 0 0 0-4-4Z" />
        <path fill="#282D32" stroke="#919496" stroke-miterlimit="10"
            d="M463.4 123h-422a5 5 0 0 0-5 5v251.5a5 5 0 0 0 5 5h422a5 5 0 0 0 5-5V128a5 5 0 0 0-5-5ZM324.1 323h-267V161.1h267v161.7Z" />
        <path fill="#06090F"
            d="M274.2 337h-217v7.6h217V337ZM93.1 352.4h-36v7.6h36v-7.6Zm305.6-191.2h-58.5V201h58.5v-39.8Zm0 52.4h-58.5v39.8h58.5v-39.8Zm0 52.4h-58.5v39.8h58.5V266Zm0 52.4h-58.5v39.8h58.5v-39.8Z" />
        <path stroke="#06090F" stroke-miterlimit="10" d="M57.1 138.8h9.6m-9.6 3.2h9.6m-9.6 3h9.6" />
        <path fill="#06090F"
            d="M88.7 136H79a3.5 3.5 0 0 0-3.5 3.5v4.8a3.4 3.4 0 0 0 3.5 3.5h9.7a3.4 3.4 0 0 0 3.5-3.5v-4.8a3.5 3.5 0 0 0-3.5-3.5Zm-2.3 6.1-4.5 2.2a.2.2 0 0 1-.3-.2v-4.4a.2.2 0 0 1 0-.2h.2l4.6 2.3a.2.2 0 0 1 .1.2.2.2 0 0 1 0 .1Zm242.1-6.1h-157c-.7 0-1.3.6-1.3 1.3v9.2c0 .7.6 1.3 1.3 1.3h157c.7 0 1.3-.6 1.3-1.3v-9.2c0-.7-.6-1.3-1.3-1.3Zm118.1 14.1a8.2 8.2 0 1 0 0-16.4 8.2 8.2 0 0 0 0 16.4Z" />
        <path fill="#919496" d="M454.4 167.3h-48v4h48v-4Zm-7.8 7.7h-40.2v4h40.2v-4Z" />
        <path stroke="#919496" stroke-miterlimit="10" d="M406.4 187h24m-24 7.8H421m5.5 0h14.7" />
        <path fill="#919496" d="M454.4 218.3h-48v4h48v-4Zm-7.8 7.7h-40.2v4h40.2v-4Z" />
        <path stroke="#919496" stroke-miterlimit="10" d="M406.4 237.9h24m-24 7.9H421m5.5 0h14.7" />
        <path fill="#919496" d="M454.4 272h-48v4h48v-4Zm-7.8 7.8h-40.2v4h40.2v-4Z" />
        <path stroke="#919496" stroke-miterlimit="10" d="M406.4 291.7h24m-24 7.9H421m5.5 0h14.7" />
        <path fill="#919496" d="M454.4 323.2h-48v4h48v-4Zm-7.8 7.8h-40.2v4h40.2v-4Z" />
        <path stroke="#919496" stroke-miterlimit="10" d="M406.4 342.8h24m-24 8H421m5.5 0h14.7" />
        <path fill="#06090F" d="M164 352.4h-62.5v7.6H164v-7.6Z" />
        <path stroke="#919496" stroke-miterlimit="10" d="M57.1 370.1h267" />
        <path stroke="#F5A03E" stroke-miterlimit="10"
            d="m216 203.2 7.8 30a1.6 1.6 0 0 1-1.6 2h-2.8a1.6 1.6 0 0 0-1.7 1.7v8.4A14.8 14.8 0 0 1 203 260h-8.8m-24.3-3.4v13.6m35.1-10.3v10.3" />
        <path stroke="#F5A03E" stroke-miterlimit="10"
            d="M189.2 223a7.4 7.4 0 1 0 0 14s-4.5 19.6-19.3 19.6h.1l-8.8-15.2a38.7 38.7 0 0 1-5.1-19.3v-9c0-26.8 25.3-25.2 25.3-25.2h41.4c.7 2.2.8 4.6.2 6.8-2.5 8.3-16.1 13.6-33.8 12.5V223Zm15.8 47.2c0 6.3-7.9 11.4-17.5 11.4-9.7 0-17.6-5.1-17.6-11.4M126 323v-30.4a21.1 21.1 0 0 1 21-21h22.8m35.2 0h23a21.1 21.1 0 0 1 21 21V323m-95.5-11.8v11.9m67.8-11.9v11.9" />
        <path fill="#F5A03E"
            d="M57.2 161.5v161.8H126V293a21.1 21.1 0 0 1 21-21h23v-15.2l-8.7-15a38.5 38.5 0 0 1-5.1-19.3v-9c0-26.8 25.3-25.2 25.3-25.2h41.4c.7 2.2.8 4.6.1 6.8-.9 3.1-3.4 5.8-7.1 8l.2.5 7.8 30a1.7 1.7 0 0 1-.9 1.9l-.7.1h-2.8a1.6 1.6 0 0 0-1.7 1.7v8.3a14.8 14.8 0 0 1-12.8 14.7v11-.8 1.4h23a21.1 21.1 0 0 1 21 21.1v30.3h75.2V161.5h-267Z"
            opacity=".2" />
        <path stroke="#919496" stroke-miterlimit="10" d="M131.4 384.5v47.1a5 5 0 0 1-5 5H61.7a5 5 0 0 0-5 5v14.6" />
        <path stroke="#F5A03E" stroke-miterlimit="10" d="M426.5 83.1a41.3 41.3 0 1 1 0-82.6 41.3 41.3 0 0 1 0 82.6Z" />
        <path fill="#F5A03E" d="M426.5 76.1a34.3 34.3 0 1 1 0-68.6 34.3 34.3 0 0 1 0 68.6Z" opacity=".5" />
        <path stroke="#F5A03E" stroke-miterlimit="10" d="M426.5 73.1a31.3 31.3 0 1 1 0-62.6 31.3 31.3 0 0 1 0 62.6Z" />
        <path fill="#F5A03E"
            d="M419.4 56h-8.5l10.4-14.7-5.3-13.7h7.6l3.6 9.7 6.3-9.7h8.5l-10.5 14.3L437 56h-7.7l-3.8-10-6.2 10Z" />
        <path stroke="#919496" stroke-miterlimit="10" d="M324.1 123V46.7a5 5 0 0 1 5-5h56" />
        <path fill="#282D32" stroke="#919496" stroke-miterlimit="10"
            d="M496.5 432.7H425a5 5 0 0 0-5 5v71.4a5 5 0 0 0 5 5h71.5a5 5 0 0 0 5-5v-71.4a5 5 0 0 0-5-5Z" />
        <path fill="#F5A03E"
            d="M445 467.2v29.7a1.7 1.7 0 0 0 1.7 1.7h28a1.7 1.7 0 0 0 1.7-1.7v-29.7H445Zm19.1 22a1.1 1.1 0 0 1-.6 1.2l-.5.1h-4.5a1.1 1.1 0 0 1-1-1.3l1.6-6.9a3.8 3.8 0 1 1 3.3 0l1.7 6.9Zm8.9-22h-4.3v-6.7a8 8 0 1 0-16 0h-4.2a12.3 12.3 0 0 1 24.5 0v6.7Z" />
        <path stroke="#919496" stroke-miterlimit="10"
            d="M252.5 420.4v-36m37.3 36.5H215a5 5 0 0 0-5 5v54.8a5 5 0 0 0 5 5h74.7a5 5 0 0 0 5-5v-54.8a5 5 0 0 0-5-5Z" />
        <path fill="#282D32"
            d="M229.8 468.1h-8.2v7.5h8.2v-7.5Zm13.4-7.4H235v14.9h8.2v-14.9Zm13.3-7.4h-8.1v22.3h8.1v-22.3Zm13.4-14.9h-8.2v37.2h8.2v-37.2Zm13.4-7.4H275v44.6h8.2v-44.7Z" />
        <path stroke="#919496" stroke-miterlimit="10"
            d="M361 384.5v19.3a5 5 0 0 0 5 5h89.8a5 5 0 0 1 5 5v19M239 123V53a5 5 0 0 0-5-5h-49.8" />
        <path fill="#F5A03E" d="M26.6 32.4a9.8 9.8 0 1 0 0-19.6 9.8 9.8 0 0 0 0 19.6Z" />
        <path stroke="#F5A03E" stroke-miterlimit="10" d="M45.2 14.8h122.2M45.2 22.6h112.3M45.2 30.4h118.9" />
        <path fill="#F5A03E" d="M134.8 43.3h-118v11.4h118V43.3Zm-81 17.5h-37V72h37V60.8Z" opacity=".5" />
        <path stroke="#F5A03E" stroke-miterlimit="10" d="M16.8 83h14.6m6.6 0h44.2" />
    </g>
    <defs>
        <clipPath id="a">
            <path fill="#fff" d="M0 0h502.1v514.5H0z" />
        </clipPath>
    </defs>
</svg>